# xmcd
#
# Track frame offsets: 
#        150
#        29464
#        44851
#        61551
#        78560
#        94018
#        109185
#        125765
#        145510
#        168350
#        184509
#        213365
#        231814
#        251740
#        264751
#        277755
#        288834
#        301717
#        317122
#        329504
#        340181
#
# Disc length: 4715 seconds
#
# Revision: 5
# Processed by: cddbd v1.5.2PL0 Copyright (c) Steve Scherf et al.
# Submitted via: ExactAudioCopyFreeDBPlugin 1.0
#
DISCID=25126915
DTITLE=Ray Charles - Pure Genius:  The Complete Atlantic Recordings (1
DTITLE=952-1959) [Atlantic box set]
DYEAR=2005
DGENRE=Rhythm and Blues
TTITLE0=What'd I Say, Parts I and II (stereo album version)
TTITLE1=Tell Me You'll Wait for Me
TTITLE2=Come Rain or Come Shine
TTITLE3=Don't Let the Sun Catch You Cryin'
TTITLE4=Just for a Thrill
TTITLE5=You Won't Let Me Go
TTITLE6=Am I Blue
TTITLE7=The Spirit-Feel (live 1959)
TTITLE8=Frenesi (live 1959)
TTITLE9=Tell the Truth (live 1959)
TTITLE10=Drown in My Own Tears (live 1959)
TTITLE11=(Night Time Is) The Right Time (live 1959)
TTITLE12=What'd I Say (live 1959)
TTITLE13=Let the Good Times Roll
TTITLE14=Alexander's Ragtime Band
TTITLE15=Deed I Do
TTITLE16=When Your Lover Has Gone
TTITLE17=Two Years of Torture
TTITLE18=It Had to Be You
TTITLE19=I'm Movin' On
TTITLE20=I Believe to My Soul
EXTD=
EXTT0=
EXTT1=
EXTT2=
EXTT3=
EXTT4=
EXTT5=
EXTT6=
EXTT7=
EXTT8=
EXTT9=
EXTT10=
EXTT11=
EXTT12=
EXTT13=
EXTT14=
EXTT15=
EXTT16=
EXTT17=
EXTT18=
EXTT19=
EXTT20=
PLAYORDER=
